<svg width="330" height="104" viewBox="0 0 330 104" fill="none" xmlns="http://www.w3.org/2000/svg">
<path fill-rule="evenodd" clip-rule="evenodd" d="M51.9125 98.5135C77.617 98.5135 98.4547 77.6634 98.4547 51.9435C98.4547 26.2236 77.617 5.37346 51.9125 5.37346C26.2079 5.37346 5.37026 26.2236 5.37026 51.9435C5.37026 77.6634 26.2079 98.5135 51.9125 98.5135ZM51.9125 103.887C80.583 103.887 103.825 80.631 103.825 51.9435C103.825 23.2559 80.583 0 51.9125 0C23.242 0 0 23.2559 0 51.9435C0 80.631 23.242 103.887 51.9125 103.887Z" fill="white"/>
<path d="M91.297 60.7862H68.9089L59.7654 28.144H69.8784L91.297 60.7862Z" fill="white"/>
<path d="M12.8267 60.7863H35.282L44.4821 28.1441H34.2806L12.8267 60.7863Z" fill="white"/>
<path d="M58.5944 33.8722H45.7461L37.1935 76.1338H66.9665L58.5944 33.8722Z" fill="white"/>
<path d="M134.255 46.4301H135.706C135.218 46.4301 134.733 46.4117 134.255 46.3839V46.4301Z" fill="white"/>
<path d="M153.846 37.0841C156.146 33.7508 157.418 29.7367 157.418 25.5501V25.4361C157.418 13.9575 148.397 4.67233 135.826 4.67233C123.256 4.67233 114.12 14.0745 114.12 25.5531V25.6671C114.12 36.6959 122.451 45.6977 134.26 46.3847C134.739 46.4124 135.223 46.4309 135.711 46.4309C140.244 46.4309 144.368 45.1647 147.8 42.9805C147.803 42.9805 147.81 42.9744 147.81 42.9744C147.816 42.9744 151.316 45.6946 151.316 45.6946H163.778L153.852 37.0841H153.846ZM135.823 38.2394C135.289 38.2394 134.767 38.1962 134.257 38.1346C127.878 37.3675 123.486 31.9579 123.486 25.5501V25.4361C123.486 24.3609 123.62 23.3227 123.85 22.3246C125.105 16.8995 129.61 12.8608 135.705 12.8608C142.923 12.8608 148.043 18.6278 148.043 25.5501V25.664C148.043 27.4354 147.754 29.062 147.175 30.5654C147.104 30.7502 147.048 30.9382 146.967 31.1168L140.2 25.1711L134.54 31.5451L134.546 31.5512L141.07 37.1796C139.522 37.845 137.757 38.2363 135.82 38.2363L135.823 38.2394Z" fill="white"/>
<path d="M134.548 31.5546L134.544 31.5475L134.548 31.5546Z" fill="white"/>
<path d="M259.578 45.6716L250.51 33.1825V45.6716H241.389V6.17639H250.51V28.0055L259.525 15.8901H270.78L258.405 30.8342L270.886 45.6716H259.578Z" fill="white"/>
<path d="M209.476 30.7812C209.476 27.6856 210.099 24.9814 211.343 22.6687C212.624 20.3559 214.384 18.5768 216.624 17.3315C218.9 16.0861 221.496 15.4635 224.412 15.4635C228.145 15.4635 231.257 16.4419 233.746 18.3989C236.271 20.3559 237.924 23.1134 238.707 26.6715H228.999C228.181 24.3943 226.599 23.2557 224.252 23.2557C222.58 23.2557 221.247 23.914 220.251 25.2305C219.255 26.5114 218.758 28.3617 218.758 30.7812C218.758 33.2007 219.255 35.0687 220.251 36.3852C221.247 37.6661 222.58 38.3066 224.252 38.3066C226.599 38.3066 228.181 37.168 228.999 34.8908H238.707C237.924 38.3778 236.271 41.1175 233.746 43.1101C231.221 45.1026 228.11 46.0989 224.412 46.0989C221.496 46.0989 218.9 45.4762 216.624 44.2309C214.384 42.9855 212.624 41.2065 211.343 38.8937C210.099 36.5809 209.476 33.8767 209.476 30.7812Z" fill="white"/>
<path d="M201.711 12.7945C200.111 12.7945 198.795 12.3319 197.764 11.4068C196.768 10.4461 196.271 9.27196 196.271 7.88429C196.271 6.46104 196.768 5.28686 197.764 4.36175C198.795 3.40106 200.111 2.92071 201.711 2.92071C203.276 2.92071 204.556 3.40106 205.552 4.36175C206.583 5.28686 207.099 6.46104 207.099 7.88429C207.099 9.27196 206.583 10.4461 205.552 11.4068C204.556 12.3319 203.276 12.7945 201.711 12.7945ZM206.245 15.8901V45.6716H197.124V15.8901H206.245Z" fill="white"/>
<path d="M191.296 15.8894V45.6709H182.175V41.6146C181.25 42.9311 179.988 43.9985 178.388 44.8169C176.823 45.5997 175.08 45.9911 173.16 45.9911C170.884 45.9911 168.875 45.4929 167.133 44.4967C165.39 43.4648 164.039 41.9882 163.079 40.0668C162.119 38.1454 161.639 35.886 161.639 33.2886V15.8894H170.707V32.061C170.707 34.0536 171.222 35.6014 172.253 36.7044C173.285 37.8074 174.672 38.3589 176.414 38.3589C178.192 38.3589 179.597 37.8074 180.628 36.7044C181.659 35.6014 182.175 34.0536 182.175 32.061V15.8894H191.296Z" fill="white"/>
<path d="M319.213 93.8437C315.978 93.8437 313.329 93.1322 311.267 91.7092C309.24 90.2863 308.103 88.2585 307.854 85.626H310.307C310.485 87.5115 311.338 89.0056 312.867 90.1084C314.431 91.2112 316.546 91.7626 319.213 91.7626C321.417 91.7626 323.159 91.2112 324.439 90.1084C325.755 88.97 326.412 87.5826 326.412 85.9462C326.412 84.8078 326.057 83.8829 325.346 83.1714C324.67 82.4244 323.817 81.8552 322.786 81.4639C321.755 81.0725 320.351 80.6456 318.573 80.1832C316.44 79.614 314.715 79.0626 313.4 78.529C312.085 77.9598 310.965 77.1238 310.04 76.021C309.116 74.9182 308.654 73.4419 308.654 71.592C308.654 70.2402 309.063 68.9951 309.88 67.8567C310.698 66.6828 311.836 65.7578 313.293 65.0819C314.751 64.406 316.404 64.0681 318.253 64.0681C321.275 64.0681 323.71 64.8329 325.559 66.3626C327.443 67.8567 328.457 69.9378 328.599 72.6059H326.199C326.092 70.6849 325.346 69.1196 323.959 67.9101C322.573 66.7006 320.653 66.0958 318.2 66.0958C316.138 66.0958 314.431 66.6294 313.08 67.6966C311.729 68.7639 311.054 70.0623 311.054 71.592C311.054 72.9438 311.427 74.0466 312.173 74.9004C312.956 75.7186 313.898 76.359 315 76.8214C316.138 77.2483 317.631 77.7108 319.48 78.2088C321.506 78.7424 323.124 79.276 324.333 79.8097C325.577 80.3077 326.626 81.0548 327.479 82.0508C328.332 83.0113 328.759 84.3098 328.759 85.9462C328.759 87.4403 328.35 88.7921 327.532 90.0017C326.715 91.2112 325.577 92.1539 324.119 92.8298C322.662 93.5057 321.026 93.8437 319.213 93.8437Z" fill="white"/>
<path fill-rule="evenodd" clip-rule="evenodd" d="M310.958 92.1624L310.954 92.1598C308.786 90.6374 307.572 88.4584 307.309 85.6778L307.252 85.0754H310.811L310.858 85.5742C311.021 87.3014 311.791 88.6507 313.189 89.66C314.631 90.6751 316.621 91.212 319.216 91.212C321.329 91.212 322.93 90.6847 324.083 89.6917C325.286 88.6504 325.865 87.4114 325.865 85.9461C325.865 84.9329 325.554 84.155 324.96 83.5606L324.95 83.5509L324.941 83.5407C324.329 82.8643 323.552 82.3419 322.594 81.9785C321.59 81.5973 320.207 81.1762 318.438 80.7159L318.434 80.7151C316.29 80.1428 314.541 79.5846 313.197 79.0391L313.185 79.0343C311.791 78.431 310.601 77.5429 309.622 76.3747C308.593 75.1473 308.107 73.5335 308.107 71.5919C308.107 70.1216 308.554 68.766 309.434 67.5386C310.314 66.2767 311.532 65.2934 313.065 64.5823C314.606 63.8681 316.34 63.5174 318.256 63.5174C321.37 63.5174 323.938 64.3064 325.909 65.9346C327.928 67.538 329.002 69.7723 329.152 72.5765L329.183 73.1563H325.682L325.653 72.6363C325.554 70.8561 324.87 69.4321 323.601 68.325C322.344 67.2284 320.568 66.6463 318.203 66.6463C316.239 66.6463 314.66 67.1525 313.424 68.1287C312.187 69.1064 311.607 70.2534 311.607 71.5919C311.607 72.8321 311.945 73.795 312.583 74.5287C313.306 75.2827 314.178 75.8767 315.206 76.3096C316.32 76.7267 317.79 77.1826 319.624 77.6767C321.659 78.2126 323.304 78.7534 324.549 79.302C325.869 79.8317 326.987 80.628 327.897 81.6887C328.86 82.7748 329.312 84.2149 329.312 85.9461C329.312 87.5475 328.872 89.0072 327.991 90.31C327.112 91.6107 325.893 92.6156 324.354 93.3292C322.815 94.0428 321.099 94.3941 319.216 94.3941C315.902 94.3941 313.135 93.6649 310.958 92.1624ZM327.482 82.0507C326.629 81.0547 325.58 80.3076 324.336 79.8096C323.127 79.276 321.509 78.7423 319.483 78.2087C317.634 77.7107 316.141 77.2482 315.003 76.8213C313.901 76.3589 312.959 75.7185 312.177 74.9003C311.43 74.0465 311.057 72.9437 311.057 71.5919C311.057 70.0622 311.732 68.7638 313.083 67.6965C314.434 66.6293 316.141 66.0957 318.203 66.0957C320.656 66.0957 322.576 66.7005 323.963 67.91C325.349 69.1195 326.096 70.6848 326.202 72.6058H328.602C328.592 72.4194 328.578 72.2359 328.56 72.0552C328.314 69.6498 327.315 67.7523 325.562 66.3625C323.714 64.8328 321.278 64.068 318.256 64.068C316.408 64.068 314.754 64.4059 313.297 65.0818C311.839 65.7578 310.701 66.6827 309.884 67.8566C309.066 68.995 308.657 70.2401 308.657 71.5919C308.657 73.4418 309.119 74.9181 310.044 76.0209C310.968 77.1237 312.088 77.9597 313.403 78.5289C314.719 79.0625 316.443 79.6139 318.576 80.1831C320.354 80.6456 321.758 81.0725 322.789 81.4638C323.82 81.8551 324.674 82.4243 325.349 83.1713C326.06 83.8828 326.416 84.8077 326.416 85.9461C326.416 87.5825 325.758 88.9699 324.443 90.1083C323.163 91.2111 321.421 91.7625 319.216 91.7625C316.55 91.7625 314.434 91.2111 312.87 90.1083C311.341 89.0055 310.488 87.5114 310.31 85.6259H307.857C307.875 85.8125 307.897 85.996 307.923 86.1765C308.272 88.5428 309.387 90.387 311.27 91.7091C313.332 93.1321 315.981 93.8436 319.216 93.8436C321.029 93.8436 322.665 93.5056 324.123 92.8297C325.58 92.1538 326.718 91.2111 327.536 90.0016C328.353 88.792 328.762 87.4402 328.762 85.9461C328.762 84.3097 328.336 83.0112 327.482 82.0507Z" fill="white"/>
<path d="M303.467 76.9815C303.467 78.2622 303.431 79.2227 303.36 79.863H278.348C278.42 82.4599 278.988 84.6477 280.055 86.4265C281.122 88.2052 282.526 89.5392 284.268 90.4286C286.01 91.3179 287.912 91.7626 289.974 91.7626C292.818 91.7626 295.201 91.0689 297.12 89.6815C299.04 88.2585 300.249 86.3375 300.747 83.9185H303.253C302.684 86.8711 301.227 89.2724 298.88 91.1223C296.534 92.9365 293.565 93.8437 289.974 93.8437C287.272 93.8437 284.855 93.2389 282.721 92.0294C280.588 90.8199 278.917 89.0945 277.708 86.8534C276.5 84.5766 275.895 81.9263 275.895 78.9025C275.895 75.8787 276.482 73.2462 277.655 71.005C278.864 68.7639 280.535 67.0563 282.668 65.8824C284.801 64.6728 287.237 64.0681 289.974 64.0681C292.747 64.0681 295.147 64.6728 297.174 65.8824C299.236 67.0563 300.8 68.6394 301.867 70.6315C302.933 72.5881 303.467 74.7048 303.467 76.9815ZM301.067 77.8886C301.173 75.3273 300.711 73.1573 299.68 71.3786C298.685 69.5999 297.316 68.2836 295.574 67.4298C293.832 66.5405 291.947 66.0958 289.921 66.0958C287.894 66.0958 286.01 66.5405 284.268 67.4298C282.561 68.2836 281.157 69.5999 280.055 71.3786C278.988 73.1573 278.42 75.3273 278.348 77.8886H301.067Z" fill="white"/>
<path fill-rule="evenodd" clip-rule="evenodd" d="M303.854 80.4135H278.924C279.055 82.6874 279.597 84.5906 280.528 86.1431C281.545 87.8389 282.875 89.0985 284.519 89.9381C286.18 90.7857 287.995 91.212 289.975 91.212C292.726 91.212 294.989 90.5427 296.797 89.237C298.602 87.8978 299.738 86.0974 300.209 83.8074L300.299 83.3678H303.921L303.795 84.0226C303.201 87.1043 301.673 89.6224 299.222 91.5546L299.218 91.5578C296.756 93.4613 293.662 94.3941 289.975 94.3941C287.188 94.3941 284.675 93.7694 282.451 92.5083C280.225 91.2457 278.481 89.4434 277.225 87.1147L277.224 87.1116C275.966 84.7425 275.346 82.0007 275.346 78.9024C275.346 75.8069 275.947 73.0835 277.169 70.7495L277.172 70.7435C278.428 68.4146 280.172 66.6289 282.401 65.4016C284.626 64.141 287.155 63.5174 289.975 63.5174C292.828 63.5174 295.327 64.1398 297.452 65.4065C299.596 66.6285 301.235 68.2838 302.352 70.3697C303.463 72.4084 304.018 74.6154 304.018 76.9814C304.018 78.2667 303.983 79.252 303.908 79.9237L303.854 80.4135ZM301.868 70.6314C300.801 68.6393 299.237 67.0562 297.175 65.8823C295.148 64.6727 292.749 64.068 289.975 64.068C287.238 64.068 284.802 64.6727 282.669 65.8823C280.536 67.0562 278.865 68.7638 277.656 71.0049C276.483 73.2461 275.896 75.8786 275.896 78.9024C275.896 81.9262 276.501 84.5765 277.71 86.8533C278.918 89.0944 280.589 90.8198 282.723 92.0293C284.856 93.2388 287.273 93.8436 289.975 93.8436C293.566 93.8436 296.535 92.9364 298.881 91.1222C301.08 89.3886 302.499 87.1709 303.137 84.4689C303.179 84.2876 303.219 84.1041 303.254 83.9184H300.748C300.25 86.3374 299.041 88.2584 297.122 89.6814C295.202 91.0688 292.82 91.7625 289.975 91.7625C287.913 91.7625 286.011 91.3178 284.269 90.4285C282.527 89.5391 281.123 88.2051 280.056 86.4264C279.066 84.7748 278.505 82.7705 278.372 80.4135C278.362 80.232 278.355 80.0485 278.35 79.8629H303.361C303.432 79.2226 303.468 78.2621 303.468 76.9814C303.468 74.7047 302.934 72.588 301.868 70.6314ZM299.201 71.6475C298.258 69.9612 296.969 68.7262 295.333 67.9242L295.325 67.9202C293.663 67.0718 291.865 66.6463 289.922 66.6463C287.979 66.6463 286.181 67.0718 284.519 67.9201L284.515 67.9222C282.91 68.7255 281.579 69.9663 280.526 71.6652C279.597 73.2161 279.056 75.1008 278.924 77.338H300.532C300.554 75.0897 300.103 73.2031 299.205 71.6547L299.201 71.6475ZM301.068 77.8886H278.35C278.355 77.703 278.362 77.5195 278.373 77.338C278.506 75.0148 279.067 73.0283 280.056 71.3785C281.158 69.5998 282.563 68.2835 284.269 67.4297C286.011 66.5404 287.896 66.0957 289.922 66.0957C291.949 66.0957 293.833 66.5404 295.575 67.4297C297.317 68.2835 298.686 69.5998 299.681 71.3785C300.712 73.1572 301.175 75.3272 301.068 77.8886Z" fill="white"/>
<path d="M243.938 78.9025C243.938 75.8787 244.524 73.2462 245.697 71.005C246.906 68.7639 248.56 67.0563 250.657 65.8824C252.79 64.6728 255.226 64.0681 257.963 64.0681C261.59 64.0681 264.558 64.9752 266.869 66.7895C269.216 68.6038 270.673 71.0406 271.242 74.1H268.736C268.274 71.6098 267.065 69.6532 265.109 68.2302C263.19 66.8073 260.808 66.0958 257.963 66.0958C255.83 66.0958 253.892 66.5761 252.15 67.5366C250.408 68.4615 249.004 69.9022 247.937 71.8588C246.906 73.7798 246.391 76.1277 246.391 78.9025C246.391 81.7129 246.906 84.0786 247.937 85.9996C249.004 87.9206 250.408 89.3613 252.15 90.3218C253.892 91.2823 255.83 91.7626 257.963 91.7626C260.808 91.7626 263.19 91.0511 265.109 89.6281C267.065 88.2052 268.274 86.2486 268.736 83.7584H271.242C270.673 86.7822 269.216 89.219 266.869 91.0689C264.523 92.9188 261.554 93.8437 257.963 93.8437C255.226 93.8437 252.79 93.2389 250.657 92.0294C248.56 90.8199 246.906 89.0945 245.697 86.8534C244.524 84.5766 243.938 81.9263 243.938 78.9025Z" fill="white"/>
<path fill-rule="evenodd" clip-rule="evenodd" d="M245.213 70.7435C246.468 68.4164 248.194 66.6305 250.387 65.4025C252.612 64.1413 255.143 63.5174 257.963 63.5174C261.682 63.5174 264.779 64.449 267.207 66.355C269.665 68.2562 271.191 70.8146 271.783 73.9992L271.904 74.6504H268.278L268.195 74.2004C267.757 71.8416 266.622 70.0113 264.786 68.6754L264.782 68.6726C262.974 67.3325 260.713 66.6463 257.963 66.6463C255.916 66.6463 254.071 67.1062 252.416 68.0187L252.408 68.0228C250.774 68.8906 249.443 70.247 248.421 72.1207C247.444 73.9425 246.941 76.1951 246.941 78.9024C246.941 81.6457 247.444 83.915 248.42 85.7355C249.442 87.5741 250.775 88.9347 252.416 89.8396C254.071 90.752 255.916 91.212 257.963 91.212C260.713 91.212 262.974 90.5258 264.782 89.1856L264.786 89.1828C266.622 87.8469 267.757 86.0166 268.195 83.6578L268.278 83.2078H271.906L271.783 83.8601C271.19 87.0105 269.664 89.5664 267.21 91.5013C264.748 93.4422 261.652 94.3941 257.963 94.3941C255.142 94.3941 252.611 93.77 250.386 92.5083L250.382 92.5063C248.192 91.2431 246.468 89.441 245.213 87.1147L245.208 87.1056C243.988 84.7379 243.387 81.9982 243.387 78.9024C243.387 75.8069 243.988 73.0835 245.21 70.7495L245.213 70.7435ZM247.937 85.9995C246.906 84.0785 246.391 81.7128 246.391 78.9024C246.391 76.1276 246.906 73.7797 247.937 71.8587C249.004 69.9021 250.408 68.4614 252.15 67.5365C253.893 66.576 255.83 66.0957 257.963 66.0957C260.808 66.0957 263.19 66.8072 265.109 68.2302C267.065 69.6531 268.274 71.6097 268.736 74.0999H271.242C271.208 73.9141 271.17 73.7306 271.129 73.5494C270.493 70.7468 269.073 68.4935 266.869 66.7894C264.558 64.9751 261.59 64.068 257.963 64.068C255.226 64.068 252.79 64.6727 250.657 65.8823C248.56 67.0562 246.906 68.7638 245.698 71.0049C244.524 73.2461 243.938 75.8786 243.938 78.9024C243.938 81.9262 244.524 84.5765 245.698 86.8533C246.906 89.0944 248.56 90.8198 250.657 92.0293C252.79 93.2388 255.226 93.8436 257.963 93.8436C261.554 93.8436 264.523 92.9187 266.869 91.0688C269.072 89.3326 270.491 87.0792 271.127 84.3088C271.169 84.1275 271.207 83.944 271.242 83.7583H268.736C268.274 86.2485 267.065 88.2051 265.109 89.628C263.19 91.051 260.808 91.7625 257.963 91.7625C255.83 91.7625 253.893 91.2822 252.15 90.3217C250.408 89.3612 249.004 87.9205 247.937 85.9995Z" fill="white"/>
<path d="M211.042 78.9025C211.042 75.9143 211.629 73.2996 212.802 71.0584C214.011 68.8172 215.664 67.0919 217.762 65.8824C219.895 64.6728 222.313 64.0681 225.015 64.0681C228.072 64.0681 230.667 64.8151 232.801 66.3092C234.934 67.8034 236.427 69.7066 237.28 72.0189V64.4416H239.68V93.4168H237.28V85.7861C236.427 88.134 234.916 90.0728 232.747 91.6025C230.614 93.0966 228.037 93.8437 225.015 93.8437C222.313 93.8437 219.895 93.2389 217.762 92.0294C215.664 90.7843 214.011 89.0412 212.802 86.8C211.629 84.5232 211.042 81.8907 211.042 78.9025ZM237.28 78.9025C237.28 76.3767 236.747 74.1534 235.68 72.2323C234.649 70.2758 233.227 68.7817 231.414 67.75C229.601 66.6828 227.574 66.1492 225.335 66.1492C222.988 66.1492 220.926 66.665 219.148 67.6966C217.371 68.6927 215.984 70.1513 214.989 72.0723C213.993 73.9933 213.495 76.27 213.495 78.9025C213.495 81.535 213.993 83.8118 214.989 85.7328C215.984 87.6538 217.371 89.1301 219.148 90.1618C220.962 91.1934 223.024 91.7092 225.335 91.7092C227.574 91.7092 229.601 91.1934 231.414 90.1618C233.263 89.0945 234.703 87.6004 235.734 85.6794C236.765 83.7228 237.28 81.4639 237.28 78.9025Z" fill="white"/>
<path fill-rule="evenodd" clip-rule="evenodd" d="M212.312 70.7968C213.567 68.4706 215.291 66.6685 217.482 65.4053L217.485 65.4033C219.709 64.1422 222.222 63.5174 225.009 63.5174C228.159 63.5174 230.87 64.2885 233.111 65.8581C234.619 66.9145 235.826 68.1727 236.725 69.6311V63.891H240.225V93.9672H236.725V88.199C235.817 89.6851 234.593 90.9701 233.059 92.0524L233.057 92.0534C230.818 93.6223 228.125 94.3941 225.009 94.3941C222.222 94.3941 219.709 93.7694 217.485 92.5083L217.476 92.5029C215.288 91.2046 213.566 89.3864 212.312 87.0614L212.308 87.0522C211.088 84.6854 210.487 81.9638 210.487 78.9024C210.487 75.8413 211.088 73.136 212.309 70.8029L212.312 70.7968ZM236.725 87.0653C236.931 86.6533 237.115 86.2269 237.275 85.786V93.4167H239.675V64.4415H237.275V72.0188C237.114 71.5833 236.931 71.1623 236.725 70.7558C235.836 69.0041 234.527 67.5219 232.795 66.3092C230.662 64.815 228.067 64.068 225.009 64.068C222.307 64.068 219.889 64.6727 217.756 65.8823C215.659 67.0918 214.005 68.8171 212.797 71.0583C211.623 73.2995 211.037 75.9142 211.037 78.9024C211.037 81.8907 211.623 84.5231 212.797 86.7999C214.005 89.0411 215.659 90.7842 217.756 92.0293C219.889 93.2388 222.307 93.8436 225.009 93.8436C228.031 93.8436 230.609 93.0965 232.742 91.6024C234.503 90.36 235.831 88.8476 236.725 87.0653ZM235.188 72.489C234.203 70.6196 232.853 69.2051 231.137 68.2285L231.13 68.2245C229.407 67.2103 227.477 66.6996 225.329 66.6996C223.066 66.6996 221.101 67.1964 219.419 68.1728L219.412 68.177C217.734 69.1172 216.421 70.4939 215.472 72.3256C214.525 74.1531 214.04 76.3393 214.04 78.9024C214.04 81.4656 214.525 83.6517 215.472 85.4792C216.421 87.3116 217.736 88.7079 219.417 89.6842C221.138 90.663 223.104 91.1586 225.329 91.1586C227.48 91.1586 229.411 90.6644 231.135 89.6838C232.892 88.6693 234.259 87.2519 235.243 85.4207C236.225 83.5553 236.725 81.3876 236.725 78.9024C236.725 76.4561 236.209 74.3273 235.194 72.4996L235.188 72.489ZM235.728 85.6793C234.697 87.6003 233.257 89.0944 231.409 90.1617C229.595 91.1933 227.569 91.7091 225.329 91.7091C223.018 91.7091 220.956 91.1933 219.143 90.1617C217.365 89.13 215.979 87.6537 214.983 85.7327C213.988 83.8117 213.49 81.5349 213.49 78.9024C213.49 76.2699 213.988 73.9932 214.983 72.0722C215.979 70.1512 217.365 68.6926 219.143 67.6965C220.921 66.6649 222.983 66.1491 225.329 66.1491C227.569 66.1491 229.595 66.6827 231.409 67.7499C233.222 68.7816 234.644 70.2757 235.675 72.2323C236.742 74.1533 237.275 76.3767 237.275 78.9024C237.275 81.4638 236.759 83.7227 235.728 85.6793Z" fill="white"/>
<path d="M210.971 66.5757H203.451V93.4164H201.051V66.5757H196.678V64.4412H201.051V62.4135C201.051 59.3897 201.816 57.1485 203.345 55.69C204.873 54.1959 207.38 53.4488 210.864 53.4488V55.5833C208.091 55.5833 206.153 56.1169 205.051 57.1841C203.985 58.2513 203.451 59.9945 203.451 62.4135V64.4412H210.971V66.5757Z" fill="white"/>
<path fill-rule="evenodd" clip-rule="evenodd" d="M211.521 67.1258H204.002V93.9665H200.501V67.1258H196.128V63.8902H200.501V62.413C200.501 59.3059 201.287 56.8938 202.963 55.2933C204.643 53.653 207.324 52.8978 210.864 52.8978H211.414V56.1333H210.864C208.132 56.1333 206.381 56.6647 205.437 57.5761C204.523 58.4931 204.002 60.0581 204.002 62.413V63.8902H211.521V67.1258ZM203.451 64.4408V62.413C203.451 59.994 203.985 58.2508 205.051 57.1836C206.153 56.1164 208.091 55.5828 210.864 55.5828V53.4483C210.678 53.4483 210.495 53.4505 210.314 53.4547C207.115 53.5303 204.792 54.2752 203.345 55.6895C201.816 57.148 201.052 59.3892 201.052 62.413V64.4408H196.679V66.5752H201.052V93.416H203.451V66.5752H210.971V64.4408H203.451Z" fill="white"/>
<path d="M181.478 70.4176C182.189 68.2831 183.451 66.6645 185.264 65.5617C187.078 64.4233 189.389 63.8541 192.197 63.8541V66.3621H191.397C188.553 66.3621 186.189 67.1803 184.305 68.8167C182.42 70.4176 181.478 73.0501 181.478 76.7142V93.4163H179.078V64.4411H181.478V70.4176Z" fill="white"/>
<path fill-rule="evenodd" clip-rule="evenodd" d="M191.637 63.8619C191.818 63.8569 192.002 63.8544 192.187 63.8544V66.3624H191.388C188.543 66.3624 186.179 67.1806 184.295 68.817C182.41 70.4179 181.468 73.0504 181.468 76.7145V93.4166H179.068V64.4414H181.468V70.4179C181.625 69.9476 181.808 69.5024 182.018 69.0822C182.762 67.5952 183.841 66.4218 185.255 65.562C186.948 64.4988 189.076 63.9321 191.637 63.8619ZM184.966 65.0936C186.889 63.8869 189.309 63.3039 192.187 63.3039H192.738V66.913H191.388C188.656 66.913 186.426 67.6954 184.655 69.2328L184.651 69.2367C182.939 70.6907 182.018 73.1326 182.018 76.7145V93.9671H178.518V63.8909H182.018V67.9668C182.766 66.7946 183.749 65.8343 184.966 65.0936Z" fill="white"/>
<path d="M174.054 64.4403V93.4155H171.654V87.1189C170.837 89.3245 169.468 91.0142 167.548 92.1882C165.664 93.3266 163.495 93.8957 161.042 93.8957C157.593 93.8957 154.767 92.8463 152.562 90.7474C150.394 88.613 149.309 85.4647 149.309 81.3025V64.4403H151.656V81.1424C151.656 84.5931 152.527 87.2434 154.269 89.0932C156.011 90.9075 158.375 91.8147 161.362 91.8147C164.49 91.8147 166.979 90.8186 168.828 88.8264C170.712 86.8343 171.654 83.8816 171.654 79.9684V64.4403H174.054Z" fill="white"/>
<path fill-rule="evenodd" clip-rule="evenodd" d="M174.604 63.8904V93.9667H171.104V89.4691C170.272 90.7694 169.182 91.8349 167.835 92.6586L167.832 92.6602C165.853 93.8562 163.583 94.447 161.042 94.447C157.472 94.447 154.504 93.3564 152.183 91.1469L152.177 91.1407C149.869 88.8693 148.759 85.5573 148.759 81.3032V63.8904H152.206V81.1431C152.206 84.5032 153.053 86.9986 154.668 88.7144C156.286 90.3993 158.496 91.2648 161.362 91.2648C164.363 91.2648 166.696 90.3151 168.425 88.4525L168.428 88.4487C170.181 86.5953 171.104 83.8016 171.104 79.9691V63.8904H174.604ZM154.269 89.0939C152.527 87.2441 151.656 84.5938 151.656 81.1431V64.441H149.309V81.3032C149.309 85.4653 150.394 88.6137 152.562 90.7481C154.767 92.847 157.593 93.8964 161.042 93.8964C163.495 93.8964 165.664 93.3272 167.548 92.1889C169.088 91.2472 170.273 89.9738 171.104 88.3684C171.309 87.9723 171.493 87.556 171.654 87.1196V93.4162H174.054V64.441H171.654V79.9691C171.654 83.8823 170.712 86.835 168.828 88.8271C166.979 90.8193 164.491 91.8153 161.362 91.8153C158.375 91.8153 156.011 90.9082 154.269 89.0939Z" fill="white"/>
<path d="M132.949 93.9315C130.328 93.9315 128.035 93.4682 126.07 92.5417C124.104 91.6153 122.562 90.3607 121.445 88.7779C120.366 87.1952 119.749 85.4387 119.595 83.5086H122.312C122.62 85.6317 123.603 87.5233 125.26 89.1833C126.956 90.8432 129.519 91.6732 132.949 91.6732C134.953 91.6732 136.688 91.3064 138.152 90.573C139.655 89.8395 140.811 88.8358 141.621 87.5619C142.43 86.288 142.835 84.879 142.835 83.3349C142.835 81.3661 142.353 79.8026 141.389 78.6445C140.464 77.4864 139.289 76.6179 137.863 76.0388C136.476 75.4598 134.587 74.8421 132.198 74.1859C129.577 73.491 127.457 72.7961 125.838 72.1013C124.258 71.4064 122.909 70.3448 121.792 68.9165C120.713 67.4496 120.173 65.4615 120.173 62.9523C120.173 61.0221 120.674 59.2657 121.676 57.6829C122.717 56.0616 124.181 54.7877 126.07 53.8612C127.958 52.9347 130.136 52.4715 132.602 52.4715C136.187 52.4715 139.077 53.3594 141.274 55.1351C143.471 56.9109 144.781 59.092 145.205 61.6784H142.43C142.199 60.6361 141.679 59.5745 140.869 58.4936C140.098 57.4127 138.981 56.5248 137.516 55.83C136.09 55.0965 134.375 54.7298 132.371 54.7298C129.673 54.7298 127.399 55.4825 125.549 56.9881C123.699 58.455 122.774 60.4238 122.774 62.8944C122.774 64.8632 123.256 66.4459 124.22 67.6426C125.183 68.8007 126.359 69.6886 127.746 70.3062C129.172 70.8853 131.08 71.4836 133.469 72.1013C136.129 72.8347 138.229 73.5489 139.771 74.2438C141.351 74.9 142.681 75.9616 143.76 77.4285C144.877 78.8569 145.436 80.8063 145.436 83.2769C145.436 85.0913 144.954 86.8092 143.991 88.4305C143.027 90.0518 141.601 91.3836 139.713 92.4259C137.863 93.4296 135.608 93.9315 132.949 93.9315Z" fill="white"/>
<path fill-rule="evenodd" clip-rule="evenodd" d="M120.991 89.0878C119.858 87.4251 119.209 85.5766 119.047 83.552L119 82.9576H122.789L122.858 83.429C123.147 85.4229 124.068 87.2078 125.649 88.7916C127.203 90.3121 129.602 91.1222 132.95 91.1222C134.888 91.1222 136.534 90.7678 137.907 90.0803L137.912 90.0777C139.334 89.3839 140.408 88.4451 141.157 87.2662C141.909 86.0827 142.286 84.7765 142.286 83.3345C142.286 81.4544 141.827 80.0287 140.968 78.9964L140.961 78.9879C140.097 77.9064 138.999 77.0936 137.657 76.5486L137.652 76.5466C136.296 75.9805 134.434 75.3702 132.055 74.717C129.422 74.0187 127.275 73.3161 125.623 72.6068L125.618 72.6049C123.951 71.8716 122.53 70.7516 121.36 69.2555L121.354 69.2491L121.35 69.2425C120.179 67.6511 119.624 65.5351 119.624 62.9519C119.624 60.9207 120.153 59.0615 121.212 57.3879L121.214 57.385C122.314 55.6715 123.858 54.333 125.829 53.3665L126.071 53.8608C124.182 54.7873 122.718 56.0612 121.677 57.6825C120.675 59.2653 120.174 61.0217 120.174 62.9519C120.174 65.4611 120.714 67.4492 121.793 68.9161C122.91 70.3444 124.259 71.406 125.839 72.1009C127.458 72.7957 129.578 73.4906 132.199 74.1855C134.588 74.8417 136.477 75.4594 137.864 76.0384C139.29 76.6175 140.466 77.486 141.391 78.6441C142.354 79.8022 142.836 81.3657 142.836 83.3345C142.836 84.8786 142.431 86.2876 141.622 87.5615C140.812 88.8354 139.656 89.8391 138.153 90.5726C136.689 91.306 134.954 91.6728 132.95 91.6728C129.52 91.6728 126.957 90.8428 125.261 89.1829C123.604 87.5229 122.621 85.6314 122.313 83.5082H119.596C119.611 83.6933 119.63 83.8768 119.653 84.0587C119.873 85.7736 120.47 87.3466 121.446 88.7775C122.564 90.3603 124.105 91.6149 126.071 92.5414C128.036 93.4678 130.329 93.9311 132.95 93.9311C135.609 93.9311 137.864 93.4292 139.714 92.4255C141.603 91.3833 143.029 90.0514 143.992 88.4301C144.956 86.8088 145.437 85.0909 145.437 83.2765C145.437 80.8059 144.878 78.8565 143.761 77.4281C142.682 75.9612 141.352 74.8996 139.772 74.2434C138.23 73.5485 136.13 72.8343 133.47 72.1009C131.081 71.4832 129.173 70.8849 127.747 70.3058C126.36 69.6882 125.184 68.8003 124.221 67.6422C123.257 66.4455 122.776 64.8628 122.776 62.894C122.776 60.4234 123.7 58.4546 125.55 56.9877C127.4 55.4821 129.674 54.7294 132.372 54.7294C134.376 54.7294 136.091 55.0961 137.517 55.8296C138.982 56.5244 140.099 57.4123 140.87 58.4932C141.68 59.5741 142.2 60.6357 142.431 61.678H145.206C145.176 61.4924 145.141 61.3089 145.101 61.1274C144.589 58.7806 143.314 56.783 141.275 55.1347C139.078 53.359 136.188 52.4711 132.603 52.4711C130.137 52.4711 127.959 52.9343 126.071 53.8608L125.829 53.3665C127.804 52.3971 130.067 51.9205 132.603 51.9205C136.279 51.9205 139.302 52.8323 141.621 54.7065C143.914 56.56 145.301 58.8581 145.749 61.5889L145.854 62.2285H141.99L141.894 61.7973C141.684 60.8488 141.204 59.8577 140.43 58.8233L140.422 58.8131C139.717 57.8237 138.68 56.9905 137.281 56.327L137.274 56.3233L137.266 56.3192C135.935 55.6345 134.31 55.2799 132.372 55.2799C129.783 55.2799 127.637 55.9995 125.898 57.4148L125.892 57.4192C124.181 58.7762 123.326 60.5825 123.326 62.894C123.326 64.771 123.783 66.2196 124.647 67.2934C125.553 68.3821 126.657 69.2163 127.963 69.7991C129.356 70.3642 131.235 70.9544 133.608 71.5678L133.617 71.5701C136.284 72.3058 138.413 73.0277 139.99 73.738C141.663 74.4345 143.067 75.5587 144.199 77.0953C145.412 78.6496 145.988 80.7306 145.988 83.2765C145.988 85.194 145.477 87.0085 144.465 88.7115C143.445 90.4285 141.941 91.825 139.98 92.9076L139.976 92.9095C138.027 93.9669 135.677 94.4816 132.95 94.4816C130.265 94.4816 127.889 94.0068 125.836 93.0394C123.795 92.0774 122.175 90.7648 120.997 89.0952L120.991 89.0878Z" fill="white"/>
</svg>
